<svg width="66" height="66" viewBox="0 0 66 66" fill="none" xmlns="http://www.w3.org/2000/svg">
<g clip-path="url(#clip0)">
<path d="M60.9579 29.8868H4.97615C3.98633 29.8868 3.03705 30.2804 2.33715 30.981C1.63724 31.6816 1.24403 32.6318 1.24403 33.6226V48.566C1.24403 49.5568 1.63724 50.5071 2.33715 51.2077C3.03705 51.9083 3.98633 52.3019 4.97615 52.3019H23.0147C25.4593 52.3019 26.4731 50.7017 27.8478 48.0617C28.9426 45.9634 30.1866 43.5849 32.967 43.5849C35.6542 43.5849 36.892 45.926 37.9867 47.9994C39.4049 50.6768 40.4313 52.3019 42.9193 52.3019H60.9579C61.9477 52.3019 62.897 51.9083 63.5969 51.2077C64.2968 50.5071 64.69 49.5568 64.69 48.566V33.6226C64.69 32.6318 64.2968 31.6816 63.5969 30.981C62.897 30.2804 61.9477 29.8868 60.9579 29.8868Z" fill="white"/>
<path d="M1.24403 31.1321L4.97615 29.8868H13.6844L20.5266 17.434L23.6367 14.9434L17.4165 13.6981L1.24403 31.1321ZM48.5175 13.6981L42.2973 14.9434L45.4074 17.434L52.2496 29.8868H60.9579L64.69 31.1321L48.5175 13.6981Z" fill="#EEEEEE"/>
<path d="M57.2258 36.7359H41.0533C40.8883 36.7359 40.7301 36.8015 40.6134 36.9182C40.4968 37.035 40.4313 37.1934 40.4313 37.3585V41.0943C40.4313 42.2503 40.89 43.3589 41.7066 44.1763C42.5231 44.9936 43.6306 45.4528 44.7854 45.4528H57.2258C57.3908 45.4528 57.549 45.3872 57.6656 45.2705C57.7823 45.1537 57.8478 44.9953 57.8478 44.8302V37.3585C57.8478 37.1934 57.7823 37.035 57.6656 36.9182C57.549 36.8015 57.3908 36.7359 57.2258 36.7359Z" fill="#FF7575"/>
<path d="M24.8808 36.7359H8.70828C8.54331 36.7359 8.38509 36.8015 8.26844 36.9182C8.15179 37.035 8.08626 37.1934 8.08626 37.3585V44.8302C8.08626 44.9953 8.15179 45.1537 8.26844 45.2705C8.38509 45.3872 8.54331 45.4528 8.70828 45.4528H21.1487C22.3035 45.4528 23.4109 44.9936 24.2275 44.1763C25.0441 43.3589 25.5028 42.2503 25.5028 41.0943V37.3585C25.5028 37.1934 25.4373 37.035 25.3206 36.9182C25.204 36.8015 25.0458 36.7359 24.8808 36.7359Z" fill="#70CBF6"/>
<g opacity="0.1">
<path opacity="0.1" d="M44.7854 48.566H57.2258C57.5557 48.566 57.8722 48.4348 58.1055 48.2013C58.3388 47.9678 58.4698 47.651 58.4698 47.3208V44.8302C58.4698 45.1605 58.3388 45.4772 58.1055 45.7107C57.8722 45.9443 57.5557 46.0755 57.2258 46.0755H44.7854C43.4657 46.0755 42.1999 45.5507 41.2667 44.6165C40.3335 43.6824 39.8093 42.4154 39.8093 41.0943V43.5849C39.8093 44.906 40.3335 46.173 41.2667 47.1071C42.1999 48.0412 43.4657 48.566 44.7854 48.566ZM57.2258 37.3585H41.0533V38.6038H57.2258V37.3585ZM21.1487 46.0755H8.70828C8.37834 46.0755 8.06191 45.9443 7.82861 45.7107C7.59531 45.4772 7.46424 45.1605 7.46424 44.8302V47.3208C7.46424 47.651 7.59531 47.9678 7.82861 48.2013C8.06191 48.4348 8.37834 48.566 8.70828 48.566H21.1487C22.4684 48.566 23.7341 48.0412 24.6673 47.1071C25.6006 46.173 26.1248 44.906 26.1248 43.5849V41.0943C26.1248 42.4154 25.6006 43.6824 24.6673 44.6165C23.7341 45.5507 22.4684 46.0755 21.1487 46.0755ZM8.70828 38.6038H24.8808V37.3585H8.70828V38.6038ZM60.9579 49.8113H42.9194C41.1964 49.8113 40.4313 48.703 39.0877 46.1689C37.9432 44.027 36.4006 41.0943 32.967 41.0943C29.434 41.0943 27.8789 44.0706 26.7468 46.2374C25.4219 48.7777 24.7128 49.8113 23.0147 49.8113H4.97616C4.31628 49.8113 3.68343 49.5489 3.21682 49.0818C2.75022 48.6148 2.48808 47.9813 2.48808 47.3208V48.566C2.48808 49.2266 2.75022 49.8601 3.21682 50.3271C3.68343 50.7942 4.31628 51.0566 4.97616 51.0566H23.0147C24.7128 51.0566 25.4219 50.023 26.7468 47.4826C27.8789 45.3158 29.434 42.3396 32.967 42.3396C36.4006 42.3396 37.9432 45.2723 39.0877 47.4141C40.4313 49.9483 41.1964 51.0566 42.9194 51.0566H60.9579C61.6178 51.0566 62.2507 50.7942 62.7173 50.3271C63.1839 49.8601 63.446 49.2266 63.446 48.566V47.3208C63.446 47.9813 63.1839 48.6148 62.7173 49.0818C62.2507 49.5489 61.6178 49.8113 60.9579 49.8113ZM14.3065 27.3962H4.35414V28.6415H14.3065V27.3962ZM61.5799 27.3962H51.6276V28.6415H61.5799V27.3962Z" fill="black"/>
</g>
<path d="M24.8808 36.1132H8.70827C8.37833 36.1132 8.06191 36.2444 7.8286 36.4779C7.5953 36.7115 7.46423 37.0282 7.46423 37.3585V44.8302C7.46423 45.1605 7.5953 45.4772 7.8286 45.7107C8.06191 45.9443 8.37833 46.0755 8.70827 46.0755H21.1487C22.4684 46.0755 23.7341 45.5507 24.6673 44.6165C25.6005 43.6824 26.1248 42.4154 26.1248 41.0943V37.3585C26.1248 37.0282 25.9938 36.7115 25.7605 36.4779C25.5271 36.2444 25.2107 36.1132 24.8808 36.1132ZM24.8808 41.0943C24.8808 42.0851 24.4876 43.0354 23.7877 43.736C23.0878 44.4366 22.1385 44.8302 21.1487 44.8302H8.70827V37.3585H24.8808V41.0943ZM57.2258 36.1132H41.0533C40.7233 36.1132 40.4069 36.2444 40.1736 36.4779C39.9403 36.7115 39.8092 37.0282 39.8092 37.3585V41.0943C39.8092 42.4154 40.3335 43.6824 41.2667 44.6165C42.1999 45.5507 43.4656 46.0755 44.7854 46.0755H57.2258C57.5557 46.0755 57.8722 45.9443 58.1055 45.7107C58.3388 45.4772 58.4698 45.1605 58.4698 44.8302V37.3585C58.4698 37.0282 58.3388 36.7115 58.1055 36.4779C57.8722 36.2444 57.5557 36.1132 57.2258 36.1132ZM57.2258 44.8302H44.7854C43.7956 44.8302 42.8463 44.4366 42.1464 43.736C41.4465 43.0354 41.0533 42.0851 41.0533 41.0943V37.3585H57.2258V44.8302Z" fill="#171C1F"/>
<path d="M65.9341 33.6226V31.1321C65.933 30.8175 65.813 30.5149 65.5982 30.2853L49.4257 12.8513C49.2815 12.6962 49.1001 12.5805 48.8987 12.5151C48.6974 12.4497 48.4827 12.4369 48.2749 12.4777L42.0547 13.723C41.8232 13.7704 41.61 13.8829 41.44 14.0471C41.27 14.2114 41.1503 14.4208 41.0948 14.6507C41.0393 14.8807 41.0504 15.1216 41.1268 15.3455C41.2032 15.5693 41.3416 15.7668 41.526 15.9147L44.4433 18.2496L50.1472 28.6415H15.7869L21.497 18.2496L24.4143 15.9147C24.6065 15.7682 24.7519 15.5689 24.8328 15.341C24.9137 15.1131 24.9266 14.8666 24.8698 14.6316C24.8131 14.3965 24.6892 14.1831 24.5133 14.0173C24.3374 13.8516 24.1171 13.7406 23.8793 13.6981L17.6591 12.4528C17.4514 12.412 17.2367 12.4248 17.0353 12.4902C16.834 12.5556 16.6526 12.6713 16.5084 12.8264L0.33589 30.2604C0.115151 30.4963 -0.00529883 30.8089 -1.55007e-07 31.1321V34.8679V48.566C-1.55007e-07 49.8871 0.524272 51.1541 1.45748 52.0882C2.39069 53.0224 3.6564 53.5472 4.97616 53.5472H23.0147C29.2349 53.5472 28.5383 44.8302 32.967 44.8302C37.2465 44.8302 36.6992 53.5472 42.9193 53.5472H60.9579C62.2777 53.5472 63.5434 53.0224 64.4766 52.0882C65.4098 51.1541 65.9341 49.8871 65.9341 48.566V33.6226ZM46.496 16.8113C46.4178 16.6675 46.3121 16.5406 46.1849 16.4377L45.1586 15.6408L48.0759 15.0555L60.6842 28.6415H52.9836L46.496 16.8113ZM5.24984 28.6415L17.852 15.0555L20.7692 15.6408L19.7429 16.4626C19.6157 16.5655 19.51 16.6924 19.4319 16.8362L12.9504 28.6415H5.24984ZM63.446 48.566C63.446 49.2266 63.1839 49.8601 62.7173 50.3271C62.2506 50.7942 61.6178 51.0566 60.9579 51.0566H42.9193C41.1964 51.0566 40.4313 49.9483 39.0877 47.4142C37.9432 45.2723 36.4006 42.3396 32.967 42.3396C29.434 42.3396 27.8789 45.3159 26.7468 47.4826C25.4219 50.023 24.7128 51.0566 23.0147 51.0566H4.97616C4.31628 51.0566 3.68342 50.7942 3.21682 50.3271C2.75021 49.8601 2.48808 49.2266 2.48808 48.566V33.6226C2.48808 32.9621 2.75021 32.3286 3.21682 31.8615C3.68342 31.3945 4.31628 31.1321 4.97616 31.1321H60.9579C61.6178 31.1321 62.2506 31.3945 62.7173 31.8615C63.1839 32.3286 63.446 32.9621 63.446 33.6226V48.566Z" fill="#171C1F"/>
</g>
<defs>
<clipPath id="clip0">
<rect width="65.9341" height="66" fill="white"/>
</clipPath>
</defs>
</svg>
