<svg width="26" height="25" viewBox="0 0 26 25" fill="none" xmlns="http://www.w3.org/2000/svg">
<g clip-path="url(#clip0)">
<path opacity="0.24" fill-rule="evenodd" clip-rule="evenodd" d="M24.9621 22.333C24.8921 22.133 24.7033 22 24.4915 22C24.2797 22 24.0909 22.133 24.021 22.333C23.9651 22.489 23.8921 22.611 23.7962 22.707C23.4186 23.085 22.7613 23.085 22.3836 22.707L16.3896 16.707C16.2967 16.613 16.2248 16.493 16.1709 16.342C17.9691 14.612 19.0939 12.187 19.0939 9.5C19.0939 9.143 19.071 8.792 19.032 8.445C19.005 8.192 18.7902 8 18.5355 8C18.2817 8 18.068 8.192 18.039 8.445C17.5635 12.752 13.9361 16 9.60343 16C5.27076 16 1.64338 12.752 1.16786 8.445C1.13889 8.191 0.925103 8 0.671357 8C0.416611 8 0.201826 8.192 0.174853 8.445C0.135892 8.792 0.112915 9.143 0.112915 9.5C0.112915 14.738 4.37066 19 9.60343 19C11.6674 19 13.5735 18.33 15.1329 17.206C15.1759 17.654 15.3517 18.083 15.6833 18.414L21.6774 24.414C22.055 24.792 22.5565 25 23.0899 25C23.6234 25 24.1249 24.792 24.5025 24.414C25.047 23.87 25.2238 23.072 24.9621 22.333Z" fill="white"/>
<path fill-rule="evenodd" clip-rule="evenodd" d="M18.5949 9.5C18.5949 14.471 14.57 18.5 9.60392 18.5C4.63789 18.5 0.612915 14.471 0.612915 9.5C0.612915 4.529 4.63789 0.5 9.60392 0.5C14.57 0.5 18.5949 4.529 18.5949 9.5Z" stroke="white" stroke-linecap="round" stroke-linejoin="round"/>
<path fill-rule="evenodd" clip-rule="evenodd" d="M23.0899 24.5C22.7063 24.5 22.3227 24.354 22.03 24.061L16.036 18.061C15.4516 17.475 15.4516 16.525 16.036 15.939C16.6214 15.354 17.5704 15.354 18.1558 15.939L24.1499 21.939C24.7343 22.525 24.7343 23.475 24.1499 24.061C23.8571 24.354 23.4735 24.5 23.0899 24.5Z" stroke="white" stroke-linecap="round" stroke-linejoin="round"/>
</g>
<defs>
<clipPath id="clip0">
<rect x="0.112915" width="24.975" height="25" fill="white"/>
</clipPath>
</defs>
</svg>
