<svg width="25" height="25" viewBox="0 0 25 25" fill="none" xmlns="http://www.w3.org/2000/svg">
<g clip-path="url(#clip0)">
<path opacity="0.24" fill-rule="evenodd" clip-rule="evenodd" d="M24.4559 17.9125C24.3528 17.7981 24.1964 17.7308 24.0303 17.7308C23.8641 17.7308 23.7078 17.7971 23.6046 17.9125C23.4493 18.0856 23.2582 18.2029 23.0367 18.2606C21.3351 18.7048 18.122 19.2346 12.4788 19.2346C6.83442 19.2346 3.62133 18.7048 1.91977 18.2606C1.69826 18.2029 1.50714 18.0856 1.35186 17.9125C1.14663 17.6817 0.706857 17.6837 0.500541 17.9125C0.0238441 18.4471 -0.123834 19.1519 0.107456 19.7991C0.334403 20.4298 0.896884 20.9192 1.61247 21.1058C3.38244 21.5683 6.70521 22.1192 12.4788 22.1192C18.2524 22.1192 21.574 21.5683 23.3451 21.1058C24.0607 20.9192 24.6232 20.4298 24.849 19.7991C25.0814 19.1519 24.9337 18.4471 24.4559 17.9125Z" fill="white"/>
<path fill-rule="evenodd" clip-rule="evenodd" d="M24.0397 18.2072C22.4315 16.412 20.0893 13.2543 20.0893 10.0957C20.0893 7.03799 17.7829 4.46011 14.6285 3.64088C14.6437 3.55049 14.66 3.45914 14.66 3.36491C14.66 2.30338 13.687 1.44184 12.4882 1.44184C11.2883 1.44184 10.3165 2.30338 10.3165 3.36491C10.3165 3.45914 10.3328 3.55049 10.348 3.64088C7.19244 4.46011 4.88714 7.03799 4.88714 10.0957C4.88714 13.2543 2.54491 16.412 0.936738 18.2072C0.173371 19.0611 0.59686 20.3332 1.77612 20.6409C3.65684 21.1322 6.93726 21.6341 12.4882 21.6341C18.0381 21.6341 21.3196 21.1322 23.2003 20.6409C24.3796 20.3332 24.8031 19.0611 24.0397 18.2072Z" stroke="white" stroke-linecap="round" stroke-linejoin="round"/>
<path fill-rule="evenodd" clip-rule="evenodd" d="M15.7451 21.567V21.6343C15.7451 23.2305 14.29 24.519 12.4875 24.519C10.6849 24.519 9.22986 23.2305 9.22986 21.6343V21.567C10.218 21.6161 11.3039 21.6343 12.4875 21.6343C13.6711 21.6343 14.7569 21.6161 15.7451 21.567Z" stroke="white" stroke-linecap="round" stroke-linejoin="round"/>
</g>
<defs>
<clipPath id="clip0">
<rect width="24.975" height="25" fill="white"/>
</clipPath>
</defs>
</svg>
