<svg width="25" height="25" viewBox="0 0 25 25" fill="none" xmlns="http://www.w3.org/2000/svg">
<g clip-path="url(#clip0)">
<path opacity="0.24" fill-rule="evenodd" clip-rule="evenodd" d="M24.9233 11.0183C24.9023 10.7683 24.6856 10.5769 24.4248 10.5769C24.1651 10.5769 23.9483 10.7683 23.9273 11.0183C23.4388 16.7019 18.4138 21.1539 12.4878 21.1539C6.56068 21.1539 1.53571 16.7019 1.0482 11.0183C1.02622 10.7683 0.809435 10.5769 0.549695 10.5769C0.289954 10.5769 0.0731712 10.7683 0.0521922 11.0183C0.0232212 11.3491 0.000244141 11.6808 0.000244141 12.0192C0.000244141 18.6471 5.60164 24.0385 12.4878 24.0385C19.3729 24.0385 24.9753 18.6471 24.9753 12.0192C24.9753 11.6808 24.9513 11.3491 24.9233 11.0183Z" fill="white"/>
<path fill-rule="evenodd" clip-rule="evenodd" d="M24.476 12.0194C24.476 18.3916 19.1084 23.5579 12.488 23.5579C5.86763 23.5579 0.5 18.3916 0.5 12.0194C0.5 5.64636 5.86763 0.480976 12.488 0.480976C19.1084 0.480976 24.476 5.64636 24.476 12.0194Z" stroke="white" stroke-linecap="round" stroke-linejoin="round"/>
<path fill-rule="evenodd" clip-rule="evenodd" d="M20.0601 20.9719C17.9922 22.5883 15.3648 23.5585 12.4877 23.5585C9.61059 23.5585 6.98322 22.5883 4.91528 20.9719C6.99321 19.8191 10.0102 19.9825 10.0102 16.8191C10.0102 14.9142 8.13207 13.4921 8.13207 12.2902C8.13207 11.0883 8.72148 11.0114 8.05215 9.7229C7.38281 8.44405 8.202 5.57771 10.4497 4.25078C12.7674 2.8854 14.186 3.18347 15.3149 4.54982C17.193 4.54982 17.5926 8.44405 16.9233 9.7229C16.2539 11.0114 16.8434 11.0883 16.8434 12.2902C16.8434 13.4921 14.9652 14.9142 14.9652 16.8191C14.9652 19.9825 17.9822 19.8191 20.0601 20.9719Z" stroke="white" stroke-linecap="round" stroke-linejoin="round"/>
</g>
<defs>
<clipPath id="clip0">
<rect width="24.975" height="25" fill="white"/>
</clipPath>
</defs>
</svg>
